<?xml version="1.0" encoding="UTF-8"?>
<svg id="Capa_1" xmlns="http://www.w3.org/2000/svg" version="1.1" viewBox="0 0 498.32 281.35">
  <!-- Generator: Adobe Illustrator 30.3.0, SVG Export Plug-In . SVG Version: 2.1.3 Build 182)  -->
  <defs>
    <style>
      .st0 {
        fill: #fff;
      }

      .st1 {
        fill: #0033a1;
      }
    </style>
  </defs>
  <rect class="st1" width="498.32" height="281.35"/>
  <path class="st0" d="M45.57,131.8c-.46-1.4-.44-.99-.4-4.41.5-3.52,4.82-7.41,8.3-9.58,3.15-1.98,5.43-3.46,10.13-5.15,4.6-1.66,9.85-3.09,16.22-4.78,10.02-2.66,15.78-3.8,25.97-5.71,16.25-3.04,25.55-4.1,42-5.71,8.18-.8,16.88-1.4,21-1.66,4.12-.26,13.2-.94,21.01-1.29,7.12-.32,15.67-.74,18.23-.74s9.49-.13,9.49-.13c0,0,4.99-.3,6.55,1.78,1.56,2.07,1.44,3.71,1.13,7.61-.39,4.9-.6,8.62-.6,8.62l-2.93,34.38s-.44,3.29.21,3.32c.85.03,1.16-2.73,1.55-4.26.39-1.52,2.81-12.32,2.81-12.32l5.82-26.31s3.9-17.1,7.06-27.86c1.88-6.41,4.03-13.13,5.2-16.32,1.03-2.82,2.06-4.85,3.51-7.56,1.45-2.71,3.1-5.04,4.15-5.81,1.15-.84,2.24-1.4,3.49-1.3,1.26.1,3.22,1.55,4.19,4.26.96,2.71,1.36,6.33,1.07,12.62-.29,6.29-1.11,19.89-1.11,19.89l-1.51,19.66-2.56,32.34s-.96,8.32-.96,8.81-.29,3.58-.29,3.58c0,0,0,.68.29,1.07.28.39.77-.2,1.06-.87.29-.68.96-4.93.96-4.93l3.29-14.9s3.87-16.83,4.65-19.54c.77-2.71,2.22-8.35,3.77-13.18,1.55-4.84,4.76-11.89,6.02-13.93,1.25-2.03,2.15-3.12,3.21-4.18,1.07-1.06,3.21-2.3,4.95-1.91,1.74.39,3.68,2.78,4.41,5.4,1.25,4.44,1.49,7.45.87,16.96-.7,10.84-1.14,13.02-1.91,21.34-1.02,10.95-2.72,28.05-2.72,28.05l-.31,4.4s-.23,1.28.25,1.67c.49.39,1.87.27,1.87.27,0,0,5.82.1,9.54.1,6.43,0,12.39-.19,16.47-.33,3.77-.13,13.46-.59,22.06-1.23,6.1-.45,11.94-1.09,15.61-1.38,3.68-.29,11.98-1.29,19.65-2.19,11.09-1.3,18.5-1.88,30.19-3.95,5.85-1.04,9.12-1.74,14.92-2.99,5.18-1.12,8.18-1.47,13.24-3.03,4.43-1.37,9.37-3.29,11.11-4.25,1.74-.97,3.43-1.98,4.19-2.76.78-.78,1.4-1.54,1.61-2.88.31-1.91-1.72-3.61-3.34-4.87-3.21-2.5-10.49-5.07-17.98-7.14-8.31-2.3-24.39-5.22-33.88-6.47-9.48-1.26-21.13-2.78-28.48-3.46-7.36-.68-37.36-2.91-42.68-3.2-5.32-.29-8.45-.3-10.48-.4-2.04-.1-6.27-.21-6.27-.21l.55-10.39s9.76.37,16,.74c7.43.44,11.6.83,19.02,1.43,6.31.51,11.83.91,16.19,1.39,4.35.48,13.45,1.45,16.93,1.91l6.31.83s27.11,4.27,32.15,5.34c5.03,1.07,15.52,3.39,17.84,4.16,2.33.77,7.77,2.4,12.32,4.33,4.55,1.94,10.25,4.8,13.34,8.28,3.1,3.48,3.5,5.74,3.5,7.48s-1.38,5.1-3.6,7.09c-2.72,2.44-9.74,6.84-17.73,9.36-6.47,2.04-17.11,5.03-27.46,7.3-7.72,1.69-12.6,2.63-20.72,3.95-7.19,1.17-10.77,1.5-18.51,2.56-7.74,1.07-12.65,1.59-20.77,2.38-11.83,1.16-18.51,1.61-30.38,2.24-6.69.35-14.24.7-17.17.7-1.93,0-15.63.21-15.63.21,0,0-3.81.38-5.77-.76-1.04-.61-1.7-.9-2.29-2.07-.76-1.5-.29-5.16-.21-7.73.06-2.24.47-7.29.59-9,.09-1.27,1.96-19.1,2.16-21.04.19-1.93,1.29-12.71,1.47-22.1.07-3.4.19-4.6.19-8.47,0-1.26-.25-1.82-.55-3.19-.16-.73-.61-1.4-1.18-1.5-.58-.1-1.93,1.88-2.46,3.26-.9,2.31-1.59,3.56-3.88,12.01-1.55,5.71-3.11,11.81-3.11,11.81l-4.1,16.94-2.95,12.25c-1.29,5.39-1.87,7.95-3.32,13.82-1.1,4.46-1.84,8.85-2.97,12.16-.41,1.21-1.18,4.83-3.19,7.77-.91,1.36-2.67,2.45-3.95,1.74-1.76-.97-2.44-3.17-2.3-10.13.12-5.48.98-15.19,1.18-17.81.19-2.61,1.12-18.03,1.12-18.03,0,0,1.7-23.89,2.19-29.5.49-5.61,1.52-18.89,1.61-22.47.09-3.58.44-11.68.53-14,.1-2.32.08-3.75.08-5.18s.15-2.99-.99-3.28c-.73-.19-1.26,1.16-2.61,4.64-1.36,3.48-3.45,10.24-3.97,12.19-.77,2.9-2.81,10.93-3.38,12.87-.58,1.94-2.71,10.74-3.1,12-.39,1.26-6.68,27.57-7.16,29.51-.48,1.94-2.42,12.39-3,14.61-.58,2.22-1.08,4.63-2.26,9.65-1.55,6.58-2.21,10.85-3.45,15.52-.85,3.23-1.37,4.47-2.87,7.37-.67,1.29-2.39,2.54-4.06,1.99-1.87-.59-2.87-5.94-2.75-10.38.14-5.17.3-9.19.55-11.6.35-3.39,2.39-29.36,2.59-31.69.19-2.32.68-8.88,1.1-14.56l.12-5.04c.03-1.23.44-2.26-.43-3.12-.9-.87-1.93-.32-3.18-.32l-10.24-.05s-22.97.91-26.51.95c-3.29.04-24.03,1.66-28.19,2.14-4.16.48-24.49,2.59-29.53,3.27-5.03.68-11.21,1.77-18.35,3.06-8.51,1.54-14.69,2.46-21.76,4.3-6.2,1.62-12.21,3.32-16.82,5.5-2.05.97-4.9,3.01-5.34,4.69-.32,1.28-.5,3.02,2.4,5.22,3.69,2.8,7.5,3.87,10.69,5.12,3.2,1.26,6.99,2.27,13.74,4.04,3.97,1.04,10.85,2.53,15.29,3.21,4.45.68,9.98,1.69,16.39,2.58,8.74,1.22,13.7,1.69,22.48,2.57,7.25.73,11.34,1.06,18.61,1.66,7.61.63,11.91.99,19.53,1.48,6.75.43,13.63.92,17.31.92s6.87-.04,6.87-.04l-.43,10.56s-6.53-.22-10.11-.4c-4.37-.21-12.82-.98-21.01-1.65-9.67-.8-18.88-1.5-24.81-2.14-4.16-.45-25.29-3.1-32.64-4.26-7.35-1.16-21.77-3.92-25.65-4.8-3.87-.87-16.72-4.34-21.66-6.47-4.93-2.12-9.42-4.41-12.22-7.02-2.8-2.61-4.56-4.17-5.12-5.9ZM48.84,207.2c0-1.65.51-2.95,1.53-3.9,1.02-.95,2.43-1.42,4.22-1.42h13.3c1.79,0,3.2.47,4.22,1.42,1.02.95,1.53,2.25,1.53,3.9v20.41h-8.04v-10.36h-8.78v10.36h-7.99v-20.41ZM56.82,212.04h8.78v-3.2h-8.78v3.2ZM114.35,222.32c0,1.65-.5,2.94-1.52,3.88-1.01.94-2.42,1.41-4.2,1.41h-13.34c-1.79,0-3.2-.48-4.22-1.42-1.02-.95-1.53-2.24-1.53-3.87v-20.43h8.02v18.7h8.78v-18.7h8v20.43ZM130.35,227.61v-25.73h19.12c1.98,0,3.54.6,4.66,1.82,1.12,1.22,1.68,2.92,1.68,5.11v11.7c0,2.33-.55,4.1-1.65,5.3-1.1,1.2-2.72,1.8-4.86,1.8h-18.95ZM138.38,220.58h9.16v-11.74h-9.16v11.74ZM171.82,227.61v-25.73h8.02v25.73h-8.02ZM220.18,220.69c0,2.3-.52,4.02-1.56,5.18-1.04,1.16-2.6,1.74-4.68,1.74h-11.84c-2.09,0-3.65-.58-4.7-1.74-1.05-1.16-1.57-2.89-1.57-5.18v-11.84c0-2.35.51-4.1,1.55-5.25,1.03-1.14,2.61-1.72,4.73-1.72h11.84c2.13,0,3.71.57,4.72,1.7,1.02,1.13,1.52,2.89,1.52,5.26v11.84ZM203.89,220.58h8.27v-11.74h-8.27v11.74ZM251.04,219.1c.1-.76.21-1.48.34-2.15.12-.67.25-1.31.39-1.92l3.09-13.15h11.13v25.73h-7.65v-12.71c0-.86.04-1.74.12-2.63.08-.89.19-1.78.34-2.66h-.25l-4.34,18.01h-6.29l-4.37-18.01h-.22c.15.89.26,1.77.34,2.66.08.89.12,1.77.12,2.63v12.71h-7.65v-25.73h11.13l3.09,13.15c.12.5.24,1.08.35,1.72.11.64.22,1.42.34,2.35ZM306.8,222.32c0,1.65-.5,2.94-1.52,3.88-1.01.94-2.41,1.41-4.2,1.41h-13.33c-1.79,0-3.2-.48-4.22-1.42-1.02-.95-1.53-2.24-1.53-3.87v-20.43h8.02v18.7h8.77v-18.7h8v20.43ZM322.5,227.61v-7.03h16.63v-2.79h-8.88c-3.08,0-5.12-.34-6.1-1.03-.98-.68-1.48-1.9-1.48-3.65v-6.17c0-1.79.59-3.09,1.76-3.88,1.17-.79,3.11-1.18,5.82-1.18h15.12v6.96h-14.85v2.86h10.68c1.97,0,3.42.4,4.36,1.21.93.81,1.39,2.07,1.39,3.78v6.31c0,1.43-.5,2.56-1.5,3.38-1,.82-2.38,1.23-4.15,1.23h-18.8ZM362.93,227.61v-25.73h8.02v25.73h-8.02ZM394.1,227.61c-2.35,0-4.11-.58-5.28-1.75-1.17-1.17-1.75-2.93-1.75-5.28v-11.74c0-2.23.59-3.95,1.77-5.16,1.18-1.2,2.85-1.8,5.03-1.8h16.6v6.96h-15.3v11.74h15.27v7.03h-16.33ZM426.09,207.2c0-1.65.51-2.95,1.53-3.9,1.02-.95,2.43-1.42,4.22-1.42h13.3c1.79,0,3.2.47,4.22,1.42,1.02.95,1.53,2.25,1.53,3.9v20.41h-8.04v-10.36h-8.78v10.36h-7.99v-20.41ZM434.07,212.04h8.78v-3.2h-8.78v3.2Z"/>
</svg>